<?xml version="1.0" encoding="UTF-8" standalone="no"?>
<!DOCTYPE svg PUBLIC "-//W3C//DTD SVG 1.1//EN"
 "http://www.w3.org/Graphics/SVG/1.1/DTD/svg11.dtd">
<!-- Generated by graphviz version 7.0.4 (20221203.1631)
 -->
<!-- Title: hal::static_list::item::get Pages: 1 -->
<svg width="262pt" height="86pt"
 viewBox="0.00 0.00 262.00 86.00" xmlns="http://www.w3.org/2000/svg" xmlns:xlink="http://www.w3.org/1999/xlink">
<g id="graph0" class="graph" transform="scale(1 1) rotate(0) translate(4 82)">
<title>hal::static_list::item::get</title>
<!-- Node1 -->
<g id="node1" class="node">
<title>Node1</title>
<g id="a_node1"><a xlink:title=" ">
<polygon fill="#999999" stroke="#666666" points="254,-48.5 137,-48.5 137,-29.5 254,-29.5 254,-48.5"/>
<text text-anchor="middle" x="195.5" y="-36.5" font-family="Helvetica,sans-Serif" font-size="10.00">hal::static_list::item::get</text>
</a>
</g>
</g>
<!-- Node2 -->
<g id="node2" class="node">
<title>Node2</title>
<g id="a_node2"><a xlink:href="classhal_1_1static__list_1_1item__iterator.html#ad25756b6db58be720f00623f6d8d970e" target="_top" xlink:title=" ">
<polygon fill="white" stroke="#666666" points="100,-78 1,-78 1,-48 100,-48 100,-78"/>
<text text-anchor="start" x="9" y="-66" font-family="Helvetica,sans-Serif" font-size="10.00">hal::static_list::item</text>
<text text-anchor="middle" x="50.5" y="-55" font-family="Helvetica,sans-Serif" font-size="10.00">_iterator::operator*</text>
</a>
</g>
</g>
<!-- Node1&#45;&gt;Node2 -->
<g id="edge1" class="edge">
<title>Node1&#45;&gt;Node2</title>
<path fill="none" stroke="#63b8ff" d="M125.58,-50.57C117.04,-52 108.45,-53.44 100.29,-54.81"/>
<polygon fill="#63b8ff" stroke="#63b8ff" points="125.97,-54.05 135.26,-48.94 124.81,-47.15 125.97,-54.05"/>
</g>
<!-- Node3 -->
<g id="node3" class="node">
<title>Node3</title>
<g id="a_node3"><a xlink:href="classhal_1_1static__list_1_1item__iterator.html#a18f606e02ae1d89b2097e6067798302a" target="_top" xlink:title=" ">
<polygon fill="white" stroke="#666666" points="101,-30 0,-30 0,0 101,0 101,-30"/>
<text text-anchor="start" x="8" y="-18" font-family="Helvetica,sans-Serif" font-size="10.00">hal::static_list::item</text>
<text text-anchor="middle" x="50.5" y="-7" font-family="Helvetica,sans-Serif" font-size="10.00">_iterator::operator&#45;&gt;</text>
</a>
</g>
</g>
<!-- Node1&#45;&gt;Node3 -->
<g id="edge2" class="edge">
<title>Node1&#45;&gt;Node3</title>
<path fill="none" stroke="#63b8ff" d="M125.59,-27.44C117.36,-26.05 109.08,-24.66 101.19,-23.34"/>
<polygon fill="#63b8ff" stroke="#63b8ff" points="124.81,-30.85 135.26,-29.06 125.97,-23.95 124.81,-30.85"/>
</g>
</g>
</svg>
