<?xml version="1.0" encoding="UTF-8" standalone="no"?>
<!DOCTYPE svg PUBLIC "-//W3C//DTD SVG 1.1//EN"
 "http://www.w3.org/Graphics/SVG/1.1/DTD/svg11.dtd">
<!-- Generated by graphviz version 7.0.4 (20221203.1631)
 -->
<!-- Title: hal::bit::modify&lt; T &gt; Pages: 1 -->
<svg width="108pt" height="149pt"
 viewBox="0.00 0.00 108.00 149.00" xmlns="http://www.w3.org/2000/svg" xmlns:xlink="http://www.w3.org/1999/xlink">
<g id="graph0" class="graph" transform="scale(1 1) rotate(0) translate(4 145)">
<title>hal::bit::modify&lt; T &gt;</title>
<!-- Node1 -->
<g id="node1" class="node">
<title>Node1</title>
<g id="a_node1"><a xlink:title=" ">
<polygon fill="#999999" stroke="#666666" points="100,-19 0,-19 0,0 100,0 100,-19"/>
<text text-anchor="middle" x="50" y="-7" font-family="Helvetica,sans-Serif" font-size="10.00">hal::bit::modify&lt; T &gt;</text>
</a>
</g>
</g>
<!-- Node2 -->
<g id="node2" class="node">
<title>Node2</title>
<g id="a_node2"><a xlink:href="classhal_1_1bit_1_1value.html" target="_top" xlink:title=" ">
<polygon fill="white" stroke="#666666" points="97.5,-75 2.5,-75 2.5,-56 97.5,-56 97.5,-75"/>
<text text-anchor="middle" x="50" y="-63" font-family="Helvetica,sans-Serif" font-size="10.00">hal::bit::value&lt; T &gt;</text>
</a>
</g>
</g>
<!-- Node2&#45;&gt;Node1 -->
<g id="edge1" class="edge">
<title>Node2&#45;&gt;Node1</title>
<path fill="none" stroke="#63b8ff" d="M50,-44.11C50,-35.52 50,-25.97 50,-19.25"/>
<polygon fill="#63b8ff" stroke="#63b8ff" points="46.5,-44.07 50,-54.07 53.5,-44.07 46.5,-44.07"/>
</g>
<!-- Node3 -->
<g id="node3" class="node">
<title>Node3</title>
<g id="a_node3"><a xlink:title=" ">
<polygon fill="white" stroke="#666666" points="64.5,-141 35.5,-141 35.5,-122 64.5,-122 64.5,-141"/>
<text text-anchor="middle" x="50" y="-129" font-family="Helvetica,sans-Serif" font-size="10.00">T</text>
</a>
</g>
</g>
<!-- Node3&#45;&gt;Node2 -->
<g id="edge2" class="edge">
<title>Node3&#45;&gt;Node2</title>
<path fill="none" stroke="#9a32cd" stroke-dasharray="5,2" d="M50,-110.18C50,-98.44 50,-84.27 50,-75.32"/>
<polygon fill="#9a32cd" stroke="#9a32cd" points="46.5,-110.09 50,-120.09 53.5,-110.09 46.5,-110.09"/>
<text text-anchor="middle" x="70" y="-96" font-family="Helvetica,sans-Serif" font-size="10.00"> m_value</text>
</g>
</g>
</svg>
