<?xml version="1.0" encoding="UTF-8" standalone="no"?>
<!DOCTYPE svg PUBLIC "-//W3C//DTD SVG 1.1//EN"
 "http://www.w3.org/Graphics/SVG/1.1/DTD/svg11.dtd">
<!-- Generated by graphviz version 7.0.4 (20221203.1631)
 -->
<!-- Title: hal::static_list::~static_list Pages: 1 -->
<svg width="228pt" height="64pt"
 viewBox="0.00 0.00 228.00 64.00" xmlns="http://www.w3.org/2000/svg" xmlns:xlink="http://www.w3.org/1999/xlink">
<g id="graph0" class="graph" transform="scale(1 1) rotate(0) translate(4 60)">
<title>hal::static_list::~static_list</title>
<!-- Node1 -->
<g id="node1" class="node">
<title>Node1</title>
<g id="a_node1"><a xlink:title=" ">
<polygon fill="#999999" stroke="#666666" points="80,-42.5 0,-42.5 0,-12.5 80,-12.5 80,-42.5"/>
<text text-anchor="start" x="8" y="-30.5" font-family="Helvetica,sans-Serif" font-size="10.00">hal::static_list::</text>
<text text-anchor="middle" x="40" y="-19.5" font-family="Helvetica,sans-Serif" font-size="10.00">~static_list</text>
</a>
</g>
</g>
<!-- Node2 -->
<g id="node2" class="node">
<title>Node2</title>
<g id="a_node2"><a xlink:href="classhal_1_1static__list.html#ab0d5de035bb39799b89ef72c0c11204e" target="_top" xlink:title=" ">
<polygon fill="white" stroke="#666666" points="220,-56 116,-56 116,-37 220,-37 220,-56"/>
<text text-anchor="middle" x="168" y="-44" font-family="Helvetica,sans-Serif" font-size="10.00">hal::static_list::begin</text>
</a>
</g>
</g>
<!-- Node1&#45;&gt;Node2 -->
<g id="edge1" class="edge">
<title>Node1&#45;&gt;Node2</title>
<path fill="none" stroke="#63b8ff" d="M80.18,-33.41C87.92,-34.58 96.24,-35.83 104.54,-37.08"/>
<polygon fill="#63b8ff" stroke="#63b8ff" points="103.88,-40.52 114.29,-38.55 104.93,-33.6 103.88,-40.52"/>
</g>
<!-- Node3 -->
<g id="node3" class="node">
<title>Node3</title>
<g id="a_node3"><a xlink:href="classhal_1_1static__list.html#a0667719d0814a9a4b5d918e267bc234c" target="_top" xlink:title=" ">
<polygon fill="white" stroke="#666666" points="216,-19 120,-19 120,0 216,0 216,-19"/>
<text text-anchor="middle" x="168" y="-7" font-family="Helvetica,sans-Serif" font-size="10.00">hal::static_list::end</text>
</a>
</g>
</g>
<!-- Node1&#45;&gt;Node3 -->
<g id="edge2" class="edge">
<title>Node1&#45;&gt;Node3</title>
<path fill="none" stroke="#63b8ff" d="M80.18,-21.9C89.21,-20.61 99.01,-19.21 108.67,-17.83"/>
<polygon fill="#63b8ff" stroke="#63b8ff" points="108.98,-21.32 118.38,-16.45 107.99,-14.4 108.98,-21.32"/>
</g>
</g>
</svg>
