<?xml version="1.0" encoding="UTF-8" standalone="no"?>
<!DOCTYPE svg PUBLIC "-//W3C//DTD SVG 1.1//EN"
 "http://www.w3.org/Graphics/SVG/1.1/DTD/svg11.dtd">
<!-- Generated by graphviz version 7.0.4 (20221203.1631)
 -->
<!-- Title: hal::write Pages: 1 -->
<svg width="202pt" height="64pt"
 viewBox="0.00 0.00 202.00 64.00" xmlns="http://www.w3.org/2000/svg" xmlns:xlink="http://www.w3.org/1999/xlink">
<g id="graph0" class="graph" transform="scale(1 1) rotate(0) translate(4 60)">
<title>hal::write</title>
<!-- Node1 -->
<g id="node1" class="node">
<title>Node1</title>
<g id="a_node1"><a xlink:title="write data to a target device on the i2c bus">
<polygon fill="#999999" stroke="#666666" points="194,-37 139,-37 139,-18 194,-18 194,-37"/>
<text text-anchor="middle" x="166.5" y="-25" font-family="Helvetica,sans-Serif" font-size="10.00">hal::write</text>
</a>
</g>
</g>
<!-- Node2 -->
<g id="node2" class="node">
<title>Node2</title>
<g id="a_node2"><a xlink:href="namespacehal.html#a2952837cd8d503a962e7edf748737925" target="_top" xlink:title="Write std::span of const char to a serial port.">
<polygon fill="white" stroke="#666666" points="79,-56 24,-56 24,-37 79,-37 79,-56"/>
<text text-anchor="middle" x="51.5" y="-44" font-family="Helvetica,sans-Serif" font-size="10.00">hal::write</text>
</a>
</g>
</g>
<!-- Node1&#45;&gt;Node2 -->
<g id="edge1" class="edge">
<title>Node1&#45;&gt;Node2</title>
<path fill="none" stroke="#63b8ff" d="M127.69,-33.86C111.89,-36.51 93.9,-39.54 79.48,-41.96"/>
<polygon fill="#63b8ff" stroke="#63b8ff" points="127.95,-37.36 137.23,-32.25 126.79,-30.46 127.95,-37.36"/>
</g>
<!-- Node3 -->
<g id="node3" class="node">
<title>Node3</title>
<g id="a_node3"><a xlink:href="namespacehal.html#a0304f6c421db748182386f3dc4547916" target="_top" xlink:title="Write data to the SPI bus and ignore data sent from peripherals on the bus then read data from the SP...">
<polygon fill="white" stroke="#666666" points="103,-19 0,-19 0,0 103,0 103,-19"/>
<text text-anchor="middle" x="51.5" y="-7" font-family="Helvetica,sans-Serif" font-size="10.00">hal::write_then_read</text>
</a>
</g>
</g>
<!-- Node1&#45;&gt;Node3 -->
<g id="edge2" class="edge">
<title>Node1&#45;&gt;Node3</title>
<path fill="none" stroke="#63b8ff" d="M127.49,-21.45C119.78,-20.22 111.55,-18.91 103.47,-17.62"/>
<polygon fill="#63b8ff" stroke="#63b8ff" points="126.8,-24.88 137.23,-23 127.9,-17.97 126.8,-24.88"/>
</g>
</g>
</svg>
