<?xml version="1.0" encoding="UTF-8" standalone="no"?>
<!DOCTYPE svg PUBLIC "-//W3C//DTD SVG 1.1//EN"
 "http://www.w3.org/Graphics/SVG/1.1/DTD/svg11.dtd">
<!-- Generated by graphviz version 7.0.4 (20221203.1631)
 -->
<!-- Title: hal::equals Pages: 1 -->
<svg width="189pt" height="64pt"
 viewBox="0.00 0.00 189.00 64.00" xmlns="http://www.w3.org/2000/svg" xmlns:xlink="http://www.w3.org/1999/xlink">
<g id="graph0" class="graph" transform="scale(1 1) rotate(0) translate(4 60)">
<title>hal::equals</title>
<!-- Node1 -->
<g id="node1" class="node">
<title>Node1</title>
<g id="a_node1"><a xlink:title="Determines if two values are equal within a relative error.">
<polygon fill="#999999" stroke="#666666" points="181,-37 119,-37 119,-18 181,-18 181,-37"/>
<text text-anchor="middle" x="150" y="-25" font-family="Helvetica,sans-Serif" font-size="10.00">hal::equals</text>
</a>
</g>
</g>
<!-- Node2 -->
<g id="node2" class="node">
<title>Node2</title>
<g id="a_node2"><a xlink:href="namespacehal.html#a9c94d8f98d4151cf8bf474d7926bb8b9" target="_top" xlink:title=" ">
<polygon fill="white" stroke="#666666" points="82,-56 1,-56 1,-37 82,-37 82,-56"/>
<text text-anchor="middle" x="41.5" y="-44" font-family="Helvetica,sans-Serif" font-size="10.00">hal::operator==</text>
</a>
</g>
</g>
<!-- Node1&#45;&gt;Node2 -->
<g id="edge1" class="edge">
<title>Node1&#45;&gt;Node2</title>
<path fill="none" stroke="#63b8ff" d="M107.45,-34.91C99.2,-36.38 90.56,-37.93 82.36,-39.39"/>
<polygon fill="#63b8ff" stroke="#63b8ff" points="108.05,-38.36 117.28,-33.16 106.82,-31.47 108.05,-38.36"/>
</g>
<!-- Node3 -->
<g id="node3" class="node">
<title>Node3</title>
<g id="a_node3"><a xlink:href="namespacehal.html#ac884b3e7857a710a51651bf449c5dd86" target="_top" xlink:title="Calculates and returns the wavelength in seconds as a float.">
<polygon fill="white" stroke="#666666" points="83,-19 0,-19 0,0 83,0 83,-19"/>
<text text-anchor="middle" x="41.5" y="-7" font-family="Helvetica,sans-Serif" font-size="10.00">hal::wavelength</text>
</a>
</g>
</g>
<!-- Node1&#45;&gt;Node3 -->
<g id="edge2" class="edge">
<title>Node1&#45;&gt;Node3</title>
<path fill="none" stroke="#63b8ff" d="M107.43,-20.47C99.45,-19.13 91.1,-17.71 83.15,-16.37"/>
<polygon fill="#63b8ff" stroke="#63b8ff" points="106.83,-23.92 117.27,-22.14 108,-17.02 106.83,-23.92"/>
</g>
</g>
</svg>
