<?xml version="1.0" encoding="UTF-8" standalone="no"?>
<!DOCTYPE svg PUBLIC "-//W3C//DTD SVG 1.1//EN"
 "http://www.w3.org/Graphics/SVG/1.1/DTD/svg11.dtd">
<!-- Generated by graphviz version 7.0.4 (20221203.1631)
 -->
<!-- Title: hal::terminated Pages: 1 -->
<svg width="308pt" height="64pt"
 viewBox="0.00 0.00 308.00 64.00" xmlns="http://www.w3.org/2000/svg" xmlns:xlink="http://www.w3.org/1999/xlink">
<g id="graph0" class="graph" transform="scale(1 1) rotate(0) translate(4 60)">
<title>hal::terminated</title>
<!-- Node1 -->
<g id="node1" class="node">
<title>Node1</title>
<g id="a_node1"><a xlink:title="Indicate if a work_state is terminal, meaning the worker has finished its job.">
<polygon fill="#999999" stroke="#666666" points="300,-37 220,-37 220,-18 300,-18 300,-37"/>
<text text-anchor="middle" x="260" y="-25" font-family="Helvetica,sans-Serif" font-size="10.00">hal::terminated</text>
</a>
</g>
</g>
<!-- Node2 -->
<g id="node2" class="node">
<title>Node2</title>
<g id="a_node2"><a xlink:href="namespacehal.html#a5ea8e36f9e6dbfd8e2f999c7ae052143" target="_top" xlink:title="Indicate if a byte stream object has finished its work.">
<polygon fill="white" stroke="#666666" points="184,-56 104,-56 104,-37 184,-37 184,-56"/>
<text text-anchor="middle" x="144" y="-44" font-family="Helvetica,sans-Serif" font-size="10.00">hal::terminated</text>
</a>
</g>
</g>
<!-- Node1&#45;&gt;Node2 -->
<g id="edge1" class="edge">
<title>Node1&#45;&gt;Node2</title>
<path fill="none" stroke="#63b8ff" d="M208.49,-35.92C200.39,-37.27 192.1,-38.65 184.3,-39.95"/>
<polygon fill="#63b8ff" stroke="#63b8ff" points="208.99,-39.38 218.27,-34.29 207.84,-32.48 208.99,-39.38"/>
</g>
<!-- Node3 -->
<g id="node3" class="node">
<title>Node3</title>
<g id="a_node3"><a xlink:href="namespacehal.html#abd5c3782a92312131a5a7824ee6d1801" target="_top" xlink:title="Repeatedly call a worker function until it has reached a terminal state or a timeout has been reached...">
<polygon fill="white" stroke="#666666" points="178,-19 110,-19 110,0 178,0 178,-19"/>
<text text-anchor="middle" x="144" y="-7" font-family="Helvetica,sans-Serif" font-size="10.00">hal::try_until</text>
</a>
</g>
</g>
<!-- Node1&#45;&gt;Node3 -->
<g id="edge2" class="edge">
<title>Node1&#45;&gt;Node3</title>
<path fill="none" stroke="#63b8ff" d="M208.41,-19.51C198.18,-17.9 187.68,-16.24 178.23,-14.75"/>
<polygon fill="#63b8ff" stroke="#63b8ff" points="207.85,-22.97 218.27,-21.07 208.94,-16.05 207.85,-22.97"/>
</g>
<!-- Node4 -->
<g id="node4" class="node">
<title>Node4</title>
<g id="a_node4"><a xlink:href="namespacehal.html#a6fb2bc5d9203d47298c18293666a718b" target="_top" xlink:title="Repeatedly call a worker function until it has reached a terminal state or a timeout has been reached...">
<polygon fill="white" stroke="#666666" points="68,-19 0,-19 0,0 68,0 68,-19"/>
<text text-anchor="middle" x="34" y="-7" font-family="Helvetica,sans-Serif" font-size="10.00">hal::try_until</text>
</a>
</g>
</g>
<!-- Node3&#45;&gt;Node4 -->
<g id="edge3" class="edge">
<title>Node3&#45;&gt;Node4</title>
<path fill="none" stroke="#63b8ff" d="M98.26,-9.5C88.25,-9.5 77.81,-9.5 68.36,-9.5"/>
<polygon fill="#63b8ff" stroke="#63b8ff" points="98.2,-13 108.2,-9.5 98.2,-6 98.2,-13"/>
</g>
</g>
</svg>
