<?xml version="1.0" encoding="UTF-8" standalone="no"?>
<!DOCTYPE svg PUBLIC "-//W3C//DTD SVG 1.1//EN"
 "http://www.w3.org/Graphics/SVG/1.1/DTD/svg11.dtd">
<!-- Generated by graphviz version 7.0.4 (20221203.1631)
 -->
<!-- Title: hal::write_then_read Pages: 1 -->
<svg width="233pt" height="64pt"
 viewBox="0.00 0.00 233.00 64.00" xmlns="http://www.w3.org/2000/svg" xmlns:xlink="http://www.w3.org/1999/xlink">
<g id="graph0" class="graph" transform="scale(1 1) rotate(0) translate(4 60)">
<title>hal::write_then_read</title>
<!-- Node1 -->
<g id="node1" class="node">
<title>Node1</title>
<g id="a_node1"><a xlink:title="Perform a write then read transaction over serial.">
<polygon fill="#999999" stroke="#666666" points="103,-37 0,-37 0,-18 103,-18 103,-37"/>
<text text-anchor="middle" x="51.5" y="-25" font-family="Helvetica,sans-Serif" font-size="10.00">hal::write_then_read</text>
</a>
</g>
</g>
<!-- Node2 -->
<g id="node2" class="node">
<title>Node2</title>
<g id="a_node2"><a xlink:href="group__i2c.html#ga00694e558039dbf0a2e4f2a438754e10" target="_top" xlink:title="read bytes from target device on i2c bus">
<polygon fill="white" stroke="#666666" points="208.5,-56 155.5,-56 155.5,-37 208.5,-37 208.5,-56"/>
<text text-anchor="middle" x="182" y="-44" font-family="Helvetica,sans-Serif" font-size="10.00">hal::read</text>
</a>
</g>
</g>
<!-- Node1&#45;&gt;Node2 -->
<g id="edge1" class="edge">
<title>Node1&#45;&gt;Node2</title>
<path fill="none" stroke="#63b8ff" d="M103.29,-35.01C116.93,-37.03 131.42,-39.17 144.15,-41.05"/>
<polygon fill="#63b8ff" stroke="#63b8ff" points="143.36,-44.47 153.76,-42.47 144.38,-37.55 143.36,-44.47"/>
</g>
<!-- Node3 -->
<g id="node3" class="node">
<title>Node3</title>
<g id="a_node3"><a xlink:href="namespacehal.html#a9fcfdc8a8fa26b039d5a8a6f9b6b6962" target="_top" xlink:title="Write bytes to a serial port.">
<polygon fill="white" stroke="#666666" points="225,-19 139,-19 139,0 225,0 225,-19"/>
<text text-anchor="middle" x="182" y="-7" font-family="Helvetica,sans-Serif" font-size="10.00">hal::write_partial</text>
</a>
</g>
</g>
<!-- Node1&#45;&gt;Node3 -->
<g id="edge2" class="edge">
<title>Node1&#45;&gt;Node3</title>
<path fill="none" stroke="#63b8ff" d="M103.29,-20.39C111.3,-19.26 119.6,-18.1 127.67,-16.97"/>
<polygon fill="#63b8ff" stroke="#63b8ff" points="127.94,-20.47 137.36,-15.61 126.97,-13.53 127.94,-20.47"/>
</g>
</g>
</svg>
