<?xml version="1.0" encoding="UTF-8" standalone="no"?>
<!DOCTYPE svg PUBLIC "-//W3C//DTD SVG 1.1//EN"
 "http://www.w3.org/Graphics/SVG/1.1/DTD/svg11.dtd">
<!-- Generated by graphviz version 7.0.4 (20221203.1631)
 -->
<!-- Title: hal::create_timeout Pages: 1 -->
<svg width="254pt" height="82pt"
 viewBox="0.00 0.00 254.00 82.00" xmlns="http://www.w3.org/2000/svg" xmlns:xlink="http://www.w3.org/1999/xlink">
<g id="graph0" class="graph" transform="scale(1 1) rotate(0) translate(4 78)">
<title>hal::create_timeout</title>
<!-- Node1 -->
<g id="node1" class="node">
<title>Node1</title>
<g id="a_node1"><a xlink:title="Create a timeout object based on hal::steady_clock.">
<polygon fill="#999999" stroke="#666666" points="246,-37 148,-37 148,-18 246,-18 246,-37"/>
<text text-anchor="middle" x="197" y="-25" font-family="Helvetica,sans-Serif" font-size="10.00">hal::create_timeout</text>
</a>
</g>
</g>
<!-- Node2 -->
<g id="node2" class="node">
<title>Node2</title>
<g id="a_node2"><a xlink:href="namespacehal.html#a80cd2610c280e615d52e03d83dad28f6" target="_top" xlink:title="Delay execution for a duration of time using a hardware steady_clock.">
<polygon fill="white" stroke="#666666" points="84,-56 28,-56 28,-37 84,-37 84,-56"/>
<text text-anchor="middle" x="56" y="-44" font-family="Helvetica,sans-Serif" font-size="10.00">hal::delay</text>
</a>
</g>
</g>
<!-- Node1&#45;&gt;Node2 -->
<g id="edge1" class="edge">
<title>Node1&#45;&gt;Node2</title>
<path fill="none" stroke="#63b8ff" d="M136.39,-35.65C118.32,-38.12 99.35,-40.71 84.48,-42.74"/>
<polygon fill="#63b8ff" stroke="#63b8ff" points="136.84,-39.12 146.28,-34.3 135.89,-32.18 136.84,-39.12"/>
</g>
<!-- Node3 -->
<g id="node3" class="node">
<title>Node3</title>
<g id="a_node3"><a xlink:href="namespacehal.html#ad1a8c1d4bb482a3798af832c843e95c1" target="_top" xlink:title="Generates a function that, when passed a duration, returns a timeout.">
<polygon fill="white" stroke="#666666" points="112,-19 0,-19 0,0 112,0 112,-19"/>
<text text-anchor="middle" x="56" y="-7" font-family="Helvetica,sans-Serif" font-size="10.00">hal::timeout_generator</text>
</a>
</g>
</g>
<!-- Node1&#45;&gt;Node3 -->
<g id="edge3" class="edge">
<title>Node1&#45;&gt;Node3</title>
<path fill="none" stroke="#63b8ff" d="M136.56,-19.8C128.5,-18.76 120.27,-17.69 112.29,-16.66"/>
<polygon fill="#63b8ff" stroke="#63b8ff" points="135.91,-23.25 146.27,-21.06 136.81,-16.31 135.91,-23.25"/>
</g>
<!-- Node2&#45;&gt;Node2 -->
<g id="edge2" class="edge">
<title>Node2&#45;&gt;Node2</title>
<path fill="none" stroke="#63b8ff" d="M81.03,-67.43C77.9,-71.29 69.55,-74 56,-74 31.21,-74 23.86,-64.94 33.93,-56.37"/>
<polygon fill="#63b8ff" stroke="#63b8ff" points="84.43,-66.59 78.46,-57.83 77.66,-68.39 84.43,-66.59"/>
</g>
</g>
</svg>
