<?xml version="1.0" encoding="UTF-8" standalone="no"?>
<!DOCTYPE svg PUBLIC "-//W3C//DTD SVG 1.1//EN"
 "http://www.w3.org/Graphics/SVG/1.1/DTD/svg11.dtd">
<!-- Generated by graphviz version 7.0.4 (20221203.1631)
 -->
<!-- Title: hal::try_until Pages: 1 -->
<svg width="192pt" height="45pt"
 viewBox="0.00 0.00 192.00 45.00" xmlns="http://www.w3.org/2000/svg" xmlns:xlink="http://www.w3.org/1999/xlink">
<g id="graph0" class="graph" transform="scale(1 1) rotate(0) translate(4 41)">
<title>hal::try_until</title>
<!-- Node1 -->
<g id="node1" class="node">
<title>Node1</title>
<g id="a_node1"><a xlink:title="Repeatedly call a worker function until it has reached a terminal state or a timeout has been reached...">
<polygon fill="#999999" stroke="#666666" points="68,-19 0,-19 0,0 68,0 68,-19"/>
<text text-anchor="middle" x="34" y="-7" font-family="Helvetica,sans-Serif" font-size="10.00">hal::try_until</text>
</a>
</g>
</g>
<!-- Node2 -->
<g id="node2" class="node">
<title>Node2</title>
<g id="a_node2"><a xlink:href="namespacehal.html#a5ea8e36f9e6dbfd8e2f999c7ae052143" target="_top" xlink:title="Indicate if a byte stream object has finished its work.">
<polygon fill="white" stroke="#666666" points="184,-19 104,-19 104,0 184,0 184,-19"/>
<text text-anchor="middle" x="144" y="-7" font-family="Helvetica,sans-Serif" font-size="10.00">hal::terminated</text>
</a>
</g>
</g>
<!-- Node1&#45;&gt;Node2 -->
<g id="edge1" class="edge">
<title>Node1&#45;&gt;Node2</title>
<path fill="none" stroke="#63b8ff" d="M68.28,-9.5C75.87,-9.5 84.09,-9.5 92.22,-9.5"/>
<polygon fill="#63b8ff" stroke="#63b8ff" points="92.05,-13 102.05,-9.5 92.05,-6 92.05,-13"/>
</g>
<!-- Node2&#45;&gt;Node2 -->
<g id="edge2" class="edge">
<title>Node2&#45;&gt;Node2</title>
<path fill="none" stroke="#63b8ff" d="M126.78,-19.37C118.92,-27.94 124.66,-37 144,-37 154.57,-37 161.08,-34.29 163.52,-30.43"/>
<polygon fill="#63b8ff" stroke="#63b8ff" points="166.99,-29.93 161.53,-20.85 160.14,-31.35 166.99,-29.93"/>
</g>
</g>
</svg>
