<?xml version="1.0" encoding="UTF-8" standalone="no"?>
<!DOCTYPE svg PUBLIC "-//W3C//DTD SVG 1.1//EN"
 "http://www.w3.org/Graphics/SVG/1.1/DTD/svg11.dtd">
<!-- Generated by graphviz version 7.0.4 (20221203.1631)
 -->
<!-- Title: hal::delay Pages: 1 -->
<svg width="362pt" height="51pt"
 viewBox="0.00 0.00 362.00 50.50" xmlns="http://www.w3.org/2000/svg" xmlns:xlink="http://www.w3.org/1999/xlink">
<g id="graph0" class="graph" transform="scale(1 1) rotate(0) translate(4 46.5)">
<title>hal::delay</title>
<!-- Node1 -->
<g id="node1" class="node">
<title>Node1</title>
<g id="a_node1"><a xlink:title="Delay execution for a duration of time using a hardware steady_clock.">
<polygon fill="#999999" stroke="#666666" points="56,-24.5 0,-24.5 0,-5.5 56,-5.5 56,-24.5"/>
<text text-anchor="middle" x="28" y="-12.5" font-family="Helvetica,sans-Serif" font-size="10.00">hal::delay</text>
</a>
</g>
</g>
<!-- Node1&#45;&gt;Node1 -->
<g id="edge3" class="edge">
<title>Node1&#45;&gt;Node1</title>
<path fill="none" stroke="#63b8ff" d="M10.31,-24.87C2.24,-33.44 8.14,-42.5 28,-42.5 38.86,-42.5 45.55,-39.79 48.06,-35.93"/>
<polygon fill="#63b8ff" stroke="#63b8ff" points="51.52,-35.39 46.01,-26.35 44.68,-36.86 51.52,-35.39"/>
</g>
<!-- Node2 -->
<g id="node2" class="node">
<title>Node2</title>
<g id="a_node2"><a xlink:href="namespacehal.html#a8c92db3eb5ae3b8e67f16261a6f71d91" target="_top" xlink:title="Create a timeout object based on hal::steady_clock.">
<polygon fill="white" stroke="#666666" points="190,-24.5 92,-24.5 92,-5.5 190,-5.5 190,-24.5"/>
<text text-anchor="middle" x="141" y="-12.5" font-family="Helvetica,sans-Serif" font-size="10.00">hal::create_timeout</text>
</a>
</g>
</g>
<!-- Node1&#45;&gt;Node2 -->
<g id="edge1" class="edge">
<title>Node1&#45;&gt;Node2</title>
<path fill="none" stroke="#63b8ff" d="M56.44,-15C63.77,-15 71.98,-15 80.32,-15"/>
<polygon fill="#63b8ff" stroke="#63b8ff" points="80.18,-18.5 90.18,-15 80.18,-11.5 80.18,-18.5"/>
</g>
<!-- Node3 -->
<g id="node3" class="node">
<title>Node3</title>
<g id="a_node3"><a xlink:href="classhal_1_1steady__clock__timeout.html#a99c29478d0ba4dbe114bb644ae060398" target="_top" xlink:title="Create a steady_clock_timeout.">
<polygon fill="white" stroke="#666666" points="354,-30 226,-30 226,0 354,0 354,-30"/>
<text text-anchor="start" x="234" y="-18" font-family="Helvetica,sans-Serif" font-size="10.00">hal::steady_clock_timeout</text>
<text text-anchor="middle" x="290" y="-7" font-family="Helvetica,sans-Serif" font-size="10.00">::create</text>
</a>
</g>
</g>
<!-- Node2&#45;&gt;Node3 -->
<g id="edge2" class="edge">
<title>Node2&#45;&gt;Node3</title>
<path fill="none" stroke="#63b8ff" d="M190.13,-15C197.82,-15 205.92,-15 214.05,-15"/>
<polygon fill="#63b8ff" stroke="#63b8ff" points="214,-18.5 224,-15 214,-11.5 214,-18.5"/>
</g>
</g>
</svg>
