<?xml version="1.0" encoding="UTF-8" standalone="no"?>
<!DOCTYPE svg PUBLIC "-//W3C//DTD SVG 1.1//EN"
 "http://www.w3.org/Graphics/SVG/1.1/DTD/svg11.dtd">
<!-- Generated by graphviz version 7.0.4 (20221203.1631)
 -->
<!-- Title: hal::write_then_read Pages: 1 -->
<svg width="202pt" height="64pt"
 viewBox="0.00 0.00 202.00 64.00" xmlns="http://www.w3.org/2000/svg" xmlns:xlink="http://www.w3.org/1999/xlink">
<g id="graph0" class="graph" transform="scale(1 1) rotate(0) translate(4 60)">
<title>hal::write_then_read</title>
<!-- Node1 -->
<g id="node1" class="node">
<title>Node1</title>
<g id="a_node1"><a xlink:title="Write data to the SPI bus and ignore data sent from peripherals on the bus then read data from the SP...">
<polygon fill="#999999" stroke="#666666" points="103,-37 0,-37 0,-18 103,-18 103,-37"/>
<text text-anchor="middle" x="51.5" y="-25" font-family="Helvetica,sans-Serif" font-size="10.00">hal::write_then_read</text>
</a>
</g>
</g>
<!-- Node2 -->
<g id="node2" class="node">
<title>Node2</title>
<g id="a_node2"><a xlink:href="namespacehal.html#a00694e558039dbf0a2e4f2a438754e10" target="_top" xlink:title="read bytes from target device on i2c bus">
<polygon fill="white" stroke="#666666" points="193,-56 140,-56 140,-37 193,-37 193,-56"/>
<text text-anchor="middle" x="166.5" y="-44" font-family="Helvetica,sans-Serif" font-size="10.00">hal::read</text>
</a>
</g>
</g>
<!-- Node1&#45;&gt;Node2 -->
<g id="edge1" class="edge">
<title>Node1&#45;&gt;Node2</title>
<path fill="none" stroke="#63b8ff" d="M103.38,-36.06C111.8,-37.47 120.39,-38.92 128.39,-40.26"/>
<polygon fill="#63b8ff" stroke="#63b8ff" points="127.67,-43.69 138.11,-41.9 128.83,-36.79 127.67,-43.69"/>
</g>
<!-- Node3 -->
<g id="node3" class="node">
<title>Node3</title>
<g id="a_node3"><a xlink:href="namespacehal.html#a602272331e4e2f84843e2fe34e83cca6" target="_top" xlink:title="write data to a target device on the i2c bus">
<polygon fill="white" stroke="#666666" points="194,-19 139,-19 139,0 194,0 194,-19"/>
<text text-anchor="middle" x="166.5" y="-7" font-family="Helvetica,sans-Serif" font-size="10.00">hal::write</text>
</a>
</g>
</g>
<!-- Node1&#45;&gt;Node3 -->
<g id="edge2" class="edge">
<title>Node1&#45;&gt;Node3</title>
<path fill="none" stroke="#63b8ff" d="M103.38,-19.4C111.47,-18.11 119.72,-16.79 127.45,-15.56"/>
<polygon fill="#63b8ff" stroke="#63b8ff" points="127.87,-19.04 137.2,-14.01 126.77,-12.12 127.87,-19.04"/>
</g>
</g>
</svg>
