<?xml version="1.0" encoding="UTF-8" standalone="no"?>
<!DOCTYPE svg PUBLIC "-//W3C//DTD SVG 1.1//EN"
 "http://www.w3.org/Graphics/SVG/1.1/DTD/svg11.dtd">
<!-- Generated by graphviz version 7.0.4 (20221203.1631)
 -->
<!-- Title: hal::write Pages: 1 -->
<svg width="172pt" height="64pt"
 viewBox="0.00 0.00 172.00 64.00" xmlns="http://www.w3.org/2000/svg" xmlns:xlink="http://www.w3.org/1999/xlink">
<g id="graph0" class="graph" transform="scale(1 1) rotate(0) translate(4 60)">
<title>hal::write</title>
<!-- Node1 -->
<g id="node1" class="node">
<title>Node1</title>
<g id="a_node1"><a xlink:title="Write std::span of const char to a serial port.">
<polygon fill="#999999" stroke="#666666" points="55,-37 0,-37 0,-18 55,-18 55,-37"/>
<text text-anchor="middle" x="27.5" y="-25" font-family="Helvetica,sans-Serif" font-size="10.00">hal::write</text>
</a>
</g>
</g>
<!-- Node2 -->
<g id="node2" class="node">
<title>Node2</title>
<g id="a_node2"><a xlink:href="namespacehal.html#a7facad0d80497e875c8fcb9a764ae278" target="_top" xlink:title=" ">
<polygon fill="white" stroke="#666666" points="164,-56 91,-56 91,-37 164,-37 164,-56"/>
<text text-anchor="middle" x="127.5" y="-44" font-family="Helvetica,sans-Serif" font-size="10.00">hal::as_bytes</text>
</a>
</g>
</g>
<!-- Node1&#45;&gt;Node2 -->
<g id="edge1" class="edge">
<title>Node1&#45;&gt;Node2</title>
<path fill="none" stroke="#63b8ff" d="M55.28,-32.69C62.76,-34.14 71.12,-35.76 79.4,-37.37"/>
<polygon fill="#63b8ff" stroke="#63b8ff" points="78.6,-40.78 89.08,-39.24 79.93,-33.91 78.6,-40.78"/>
</g>
<!-- Node3 -->
<g id="node3" class="node">
<title>Node3</title>
<g id="a_node3"><a xlink:href="group__i2c.html#ga602272331e4e2f84843e2fe34e83cca6" target="_top" xlink:title="write data to a target device on the i2c bus">
<polygon fill="white" stroke="#666666" points="155,-19 100,-19 100,0 155,0 155,-19"/>
<text text-anchor="middle" x="127.5" y="-7" font-family="Helvetica,sans-Serif" font-size="10.00">hal::write</text>
</a>
</g>
</g>
<!-- Node1&#45;&gt;Node3 -->
<g id="edge2" class="edge">
<title>Node1&#45;&gt;Node3</title>
<path fill="none" stroke="#63b8ff" d="M55.28,-22.58C65.54,-20.7 77.45,-18.51 88.57,-16.47"/>
<polygon fill="#63b8ff" stroke="#63b8ff" points="89.06,-19.94 98.26,-14.69 87.8,-13.05 89.06,-19.94"/>
</g>
</g>
</svg>
