<?xml version="1.0" encoding="UTF-8" standalone="no"?>
<!DOCTYPE svg PUBLIC "-//W3C//DTD SVG 1.1//EN"
 "http://www.w3.org/Graphics/SVG/1.1/DTD/svg11.dtd">
<!-- Generated by graphviz version 7.0.4 (20221203.1631)
 -->
<!-- Title: hal::terminated Pages: 1 -->
<svg width="296pt" height="45pt"
 viewBox="0.00 0.00 296.00 45.00" xmlns="http://www.w3.org/2000/svg" xmlns:xlink="http://www.w3.org/1999/xlink">
<g id="graph0" class="graph" transform="scale(1 1) rotate(0) translate(4 41)">
<title>hal::terminated</title>
<!-- Node1 -->
<g id="node1" class="node">
<title>Node1</title>
<g id="a_node1"><a xlink:title="Indicate if a byte stream object has finished its work.">
<polygon fill="#999999" stroke="#666666" points="288,-19 208,-19 208,0 288,0 288,-19"/>
<text text-anchor="middle" x="248" y="-7" font-family="Helvetica,sans-Serif" font-size="10.00">hal::terminated</text>
</a>
</g>
</g>
<!-- Node1&#45;&gt;Node1 -->
<g id="edge1" class="edge">
<title>Node1&#45;&gt;Node1</title>
<path fill="none" stroke="#63b8ff" d="M267.52,-30.43C265.08,-34.29 258.57,-37 248,-37 228.66,-37 222.92,-27.94 230.78,-19.37"/>
<polygon fill="#63b8ff" stroke="#63b8ff" points="270.99,-29.93 265.53,-20.85 264.14,-31.35 270.99,-29.93"/>
</g>
<!-- Node2 -->
<g id="node2" class="node">
<title>Node2</title>
<g id="a_node2"><a xlink:href="namespacehal.html#abd5c3782a92312131a5a7824ee6d1801" target="_top" xlink:title="Repeatedly call a worker function until it has reached a terminal state or a timeout has been reached...">
<polygon fill="white" stroke="#666666" points="172,-19 104,-19 104,0 172,0 172,-19"/>
<text text-anchor="middle" x="138" y="-7" font-family="Helvetica,sans-Serif" font-size="10.00">hal::try_until</text>
</a>
</g>
</g>
<!-- Node1&#45;&gt;Node2 -->
<g id="edge2" class="edge">
<title>Node1&#45;&gt;Node2</title>
<path fill="none" stroke="#63b8ff" d="M196.35,-9.5C188.22,-9.5 179.99,-9.5 172.4,-9.5"/>
<polygon fill="#63b8ff" stroke="#63b8ff" points="196.19,-13 206.19,-9.5 196.19,-6 196.19,-13"/>
</g>
<!-- Node3 -->
<g id="node3" class="node">
<title>Node3</title>
<g id="a_node3"><a xlink:href="namespacehal.html#a6fb2bc5d9203d47298c18293666a718b" target="_top" xlink:title="Repeatedly call a worker function until it has reached a terminal state or a timeout has been reached...">
<polygon fill="white" stroke="#666666" points="68,-19 0,-19 0,0 68,0 68,-19"/>
<text text-anchor="middle" x="34" y="-7" font-family="Helvetica,sans-Serif" font-size="10.00">hal::try_until</text>
</a>
</g>
</g>
<!-- Node2&#45;&gt;Node3 -->
<g id="edge3" class="edge">
<title>Node2&#45;&gt;Node3</title>
<path fill="none" stroke="#63b8ff" d="M92.18,-9.5C84.22,-9.5 76.05,-9.5 68.47,-9.5"/>
<polygon fill="#63b8ff" stroke="#63b8ff" points="92.09,-13 102.09,-9.5 92.09,-6 92.09,-13"/>
</g>
</g>
</svg>
