<?xml version="1.0" encoding="UTF-8" standalone="no"?>
<!DOCTYPE svg PUBLIC "-//W3C//DTD SVG 1.1//EN"
 "http://www.w3.org/Graphics/SVG/1.1/DTD/svg11.dtd">
<!-- Generated by graphviz version 7.0.4 (20221203.1631)
 -->
<!-- Title: hal::read Pages: 1 -->
<svg width="200pt" height="64pt"
 viewBox="0.00 0.00 200.00 64.00" xmlns="http://www.w3.org/2000/svg" xmlns:xlink="http://www.w3.org/1999/xlink">
<g id="graph0" class="graph" transform="scale(1 1) rotate(0) translate(4 60)">
<title>hal::read</title>
<!-- Node1 -->
<g id="node1" class="node">
<title>Node1</title>
<g id="a_node1"><a xlink:title="read bytes from target device on i2c bus">
<polygon fill="#999999" stroke="#666666" points="192,-37 139,-37 139,-18 192,-18 192,-37"/>
<text text-anchor="middle" x="165.5" y="-25" font-family="Helvetica,sans-Serif" font-size="10.00">hal::read</text>
</a>
</g>
</g>
<!-- Node2 -->
<g id="node2" class="node">
<title>Node2</title>
<g id="a_node2"><a xlink:href="namespacehal.html#afaee8290b9ba7d512d6f8a724e99d06c" target="_top" xlink:title="return array of read bytes from target device on i2c bus">
<polygon fill="white" stroke="#666666" points="78,-56 25,-56 25,-37 78,-37 78,-56"/>
<text text-anchor="middle" x="51.5" y="-44" font-family="Helvetica,sans-Serif" font-size="10.00">hal::read</text>
</a>
</g>
</g>
<!-- Node1&#45;&gt;Node2 -->
<g id="edge1" class="edge">
<title>Node1&#45;&gt;Node2</title>
<path fill="none" stroke="#63b8ff" d="M127.33,-33.81C111.27,-36.53 92.87,-39.65 78.34,-42.12"/>
<polygon fill="#63b8ff" stroke="#63b8ff" points="127.76,-37.28 137.03,-32.16 126.59,-30.38 127.76,-37.28"/>
</g>
<!-- Node3 -->
<g id="node3" class="node">
<title>Node3</title>
<g id="a_node3"><a xlink:href="namespacehal.html#a2d9abf5cca98ceab03b2bcae88c8231a" target="_top" xlink:title="Perform a write then read transaction over serial.">
<polygon fill="white" stroke="#666666" points="103,-19 0,-19 0,0 103,0 103,-19"/>
<text text-anchor="middle" x="51.5" y="-7" font-family="Helvetica,sans-Serif" font-size="10.00">hal::write_then_read</text>
</a>
</g>
</g>
<!-- Node1&#45;&gt;Node3 -->
<g id="edge2" class="edge">
<title>Node1&#45;&gt;Node3</title>
<path fill="none" stroke="#63b8ff" d="M127.39,-21.54C119.72,-20.3 111.52,-18.99 103.46,-17.69"/>
<polygon fill="#63b8ff" stroke="#63b8ff" points="126.6,-24.95 137.03,-23.09 127.71,-18.04 126.6,-24.95"/>
</g>
</g>
</svg>
