<?xml version="1.0" encoding="UTF-8" standalone="no"?>
<!DOCTYPE svg PUBLIC "-//W3C//DTD SVG 1.1//EN"
 "http://www.w3.org/Graphics/SVG/1.1/DTD/svg11.dtd">
<!-- Generated by graphviz version 7.0.4 (20221203.1631)
 -->
<!-- Title: hal::as_bytes Pages: 1 -->
<svg width="190pt" height="64pt"
 viewBox="0.00 0.00 190.00 64.00" xmlns="http://www.w3.org/2000/svg" xmlns:xlink="http://www.w3.org/1999/xlink">
<g id="graph0" class="graph" transform="scale(1 1) rotate(0) translate(4 60)">
<title>hal::as_bytes</title>
<!-- Node1 -->
<g id="node1" class="node">
<title>Node1</title>
<g id="a_node1"><a xlink:title=" ">
<polygon fill="#999999" stroke="#666666" points="182,-37 109,-37 109,-18 182,-18 182,-37"/>
<text text-anchor="middle" x="145.5" y="-25" font-family="Helvetica,sans-Serif" font-size="10.00">hal::as_bytes</text>
</a>
</g>
</g>
<!-- Node2 -->
<g id="node2" class="node">
<title>Node2</title>
<g id="a_node2"><a xlink:href="namespacehal.html#a4e786d23767c6a5285a103f1a691d52e" target="_top" xlink:title=" ">
<polygon fill="white" stroke="#666666" points="73,-56 0,-56 0,-37 73,-37 73,-56"/>
<text text-anchor="middle" x="36.5" y="-44" font-family="Helvetica,sans-Serif" font-size="10.00">hal::as_bytes</text>
</a>
</g>
</g>
<!-- Node1&#45;&gt;Node2 -->
<g id="edge1" class="edge">
<title>Node1&#45;&gt;Node2</title>
<path fill="none" stroke="#63b8ff" d="M97.31,-35.88C89.2,-37.32 80.89,-38.79 73.15,-40.17"/>
<polygon fill="#63b8ff" stroke="#63b8ff" points="97.85,-39.34 107.08,-34.14 96.62,-32.45 97.85,-39.34"/>
</g>
<!-- Node3 -->
<g id="node3" class="node">
<title>Node3</title>
<g id="a_node3"><a xlink:href="namespacehal.html#a2952837cd8d503a962e7edf748737925" target="_top" xlink:title="Write std::span of const char to a serial port.">
<polygon fill="white" stroke="#666666" points="64,-19 9,-19 9,0 64,0 64,-19"/>
<text text-anchor="middle" x="36.5" y="-7" font-family="Helvetica,sans-Serif" font-size="10.00">hal::write</text>
</a>
</g>
</g>
<!-- Node1&#45;&gt;Node3 -->
<g id="edge2" class="edge">
<title>Node1&#45;&gt;Node3</title>
<path fill="none" stroke="#63b8ff" d="M97.45,-19.59C86.12,-17.68 74.4,-15.71 64.36,-14.02"/>
<polygon fill="#63b8ff" stroke="#63b8ff" points="96.64,-23 107.08,-21.21 97.8,-16.09 96.64,-23"/>
</g>
</g>
</svg>
